<svg xmlns="http://www.w3.org/2000/svg" xmlns:xlink="http://www.w3.org/1999/xlink" xmlns:s="https://github.com/nturley/netlistsvg" width="1401" height="911">
  <style>svg {
    stroke:#000;
    fill:none;
  }
  text {
    fill:#000;
    stroke:none;
    font-size:10px;
    font-weight: bold;
    font-family: "Courier New", monospace;
  }
  .nodelabel {
    text-anchor: middle;
  }
  .inputPortLabel {
    text-anchor: end;
  }
  .splitjoinBody {
    fill:#000;
  }</style>
  <g s:type="generic" transform="translate(775,335)" s:width="30" s:height="40" id="cell_u_control">
    <text x="15" y="-4" class="nodelabel cell_u_control" s:attribute="ref">control_unit</text>
    <rect width="30" height="200" s:generic="body" class="cell_u_control"/>
    <g transform="translate(0,10)" s:x="0" s:y="10" s:pid="in0" id="port_u_control~funct3">
      <text x="-3" y="-4" class="inputPortLabel cell_u_control">funct3</text>
    </g>
    <g transform="translate(0,30)" s:x="0" s:y="10" s:pid="in0" id="port_u_control~funct7">
      <text x="-3" y="-4" class="inputPortLabel cell_u_control">funct7</text>
    </g>
    <g transform="translate(0,50)" s:x="0" s:y="10" s:pid="in0" id="port_u_control~opcode">
      <text x="-3" y="-4" class="inputPortLabel cell_u_control">opcode</text>
    </g>
    <g transform="translate(30,10)" s:x="30" s:y="10" s:pid="out0" id="port_u_control~alu_ctrl">
      <text x="5" y="-4" style="fill:#000; stroke:none" class="cell_u_control">alu_ctrl</text>
    </g>
    <g transform="translate(30,30)" s:x="30" s:y="10" s:pid="out0" id="port_u_control~alu_src">
      <text x="5" y="-4" style="fill:#000; stroke:none" class="cell_u_control">alu_src</text>
    </g>
    <g transform="translate(30,50)" s:x="30" s:y="10" s:pid="out0" id="port_u_control~branch">
      <text x="5" y="-4" style="fill:#000; stroke:none" class="cell_u_control">branch</text>
    </g>
    <g transform="translate(30,70)" s:x="30" s:y="10" s:pid="out0" id="port_u_control~imm_src">
      <text x="5" y="-4" style="fill:#000; stroke:none" class="cell_u_control">imm_src</text>
    </g>
    <g transform="translate(30,90)" s:x="30" s:y="10" s:pid="out0" id="port_u_control~is_m_ext">
      <text x="5" y="-4" style="fill:#000; stroke:none" class="cell_u_control">is_m_ext</text>
    </g>
    <g transform="translate(30,110)" s:x="30" s:y="10" s:pid="out0" id="port_u_control~jump">
      <text x="5" y="-4" style="fill:#000; stroke:none" class="cell_u_control">jump</text>
    </g>
    <g transform="translate(30,130)" s:x="30" s:y="10" s:pid="out0" id="port_u_control~mem_read">
      <text x="5" y="-4" style="fill:#000; stroke:none" class="cell_u_control">mem_read</text>
    </g>
    <g transform="translate(30,150)" s:x="30" s:y="10" s:pid="out0" id="port_u_control~mem_write">
      <text x="5" y="-4" style="fill:#000; stroke:none" class="cell_u_control">mem_write</text>
    </g>
    <g transform="translate(30,170)" s:x="30" s:y="10" s:pid="out0" id="port_u_control~reg_write">
      <text x="5" y="-4" style="fill:#000; stroke:none" class="cell_u_control">reg_write</text>
    </g>
    <g transform="translate(30,190)" s:x="30" s:y="10" s:pid="out0" id="port_u_control~wb_sel">
      <text x="5" y="-4" style="fill:#000; stroke:none" class="cell_u_control">wb_sel</text>
    </g>
  </g>
  <g s:type="generic" transform="translate(1279,152)" s:width="30" s:height="40" id="cell_u_id_ex">
    <text x="15" y="-4" class="nodelabel cell_u_id_ex" s:attribute="ref">id_ex_register</text>
    <rect width="30" height="440" s:generic="body" class="cell_u_id_ex"/>
    <g transform="translate(0,10)" s:x="0" s:y="10" s:pid="in0" id="port_u_id_ex~alu_ctrl_in">
      <text x="-3" y="-4" class="inputPortLabel cell_u_id_ex">alu_ctrl_in</text>
    </g>
    <g transform="translate(0,30)" s:x="0" s:y="10" s:pid="in0" id="port_u_id_ex~alu_src_in">
      <text x="-3" y="-4" class="inputPortLabel cell_u_id_ex">alu_src_in</text>
    </g>
    <g transform="translate(0,50)" s:x="0" s:y="10" s:pid="in0" id="port_u_id_ex~branch_in">
      <text x="-3" y="-4" class="inputPortLabel cell_u_id_ex">branch_in</text>
    </g>
    <g transform="translate(0,70)" s:x="0" s:y="10" s:pid="in0" id="port_u_id_ex~clk">
      <text x="-3" y="-4" class="inputPortLabel cell_u_id_ex">clk</text>
    </g>
    <g transform="translate(0,90)" s:x="0" s:y="10" s:pid="in0" id="port_u_id_ex~flush">
      <text x="-3" y="-4" class="inputPortLabel cell_u_id_ex">flush</text>
    </g>
    <g transform="translate(0,110)" s:x="0" s:y="10" s:pid="in0" id="port_u_id_ex~funct3_in">
      <text x="-3" y="-4" class="inputPortLabel cell_u_id_ex">funct3_in</text>
    </g>
    <g transform="translate(0,130)" s:x="0" s:y="10" s:pid="in0" id="port_u_id_ex~imm_ext_in">
      <text x="-3" y="-4" class="inputPortLabel cell_u_id_ex">imm_ext_in</text>
    </g>
    <g transform="translate(0,150)" s:x="0" s:y="10" s:pid="in0" id="port_u_id_ex~is_m_ext_in">
      <text x="-3" y="-4" class="inputPortLabel cell_u_id_ex">is_m_ext_in</text>
    </g>
    <g transform="translate(0,170)" s:x="0" s:y="10" s:pid="in0" id="port_u_id_ex~jump_in">
      <text x="-3" y="-4" class="inputPortLabel cell_u_id_ex">jump_in</text>
    </g>
    <g transform="translate(0,190)" s:x="0" s:y="10" s:pid="in0" id="port_u_id_ex~mem_read_in">
      <text x="-3" y="-4" class="inputPortLabel cell_u_id_ex">mem_read_in</text>
    </g>
    <g transform="translate(0,210)" s:x="0" s:y="10" s:pid="in0" id="port_u_id_ex~mem_write_in">
      <text x="-3" y="-4" class="inputPortLabel cell_u_id_ex">mem_write_in</text>
    </g>
    <g transform="translate(0,230)" s:x="0" s:y="10" s:pid="in0" id="port_u_id_ex~pc_in">
      <text x="-3" y="-4" class="inputPortLabel cell_u_id_ex">pc_in</text>
    </g>
    <g transform="translate(0,250)" s:x="0" s:y="10" s:pid="in0" id="port_u_id_ex~pc_plus4_in">
      <text x="-3" y="-4" class="inputPortLabel cell_u_id_ex">pc_plus4_in</text>
    </g>
    <g transform="translate(0,270)" s:x="0" s:y="10" s:pid="in0" id="port_u_id_ex~rd_addr_in">
      <text x="-3" y="-4" class="inputPortLabel cell_u_id_ex">rd_addr_in</text>
    </g>
    <g transform="translate(0,290)" s:x="0" s:y="10" s:pid="in0" id="port_u_id_ex~reg_data1_in">
      <text x="-3" y="-4" class="inputPortLabel cell_u_id_ex">reg_data1_in</text>
    </g>
    <g transform="translate(0,310)" s:x="0" s:y="10" s:pid="in0" id="port_u_id_ex~reg_data2_in">
      <text x="-3" y="-4" class="inputPortLabel cell_u_id_ex">reg_data2_in</text>
    </g>
    <g transform="translate(0,330)" s:x="0" s:y="10" s:pid="in0" id="port_u_id_ex~reg_write_in">
      <text x="-3" y="-4" class="inputPortLabel cell_u_id_ex">reg_write_in</text>
    </g>
    <g transform="translate(0,350)" s:x="0" s:y="10" s:pid="in0" id="port_u_id_ex~rs1_addr_in">
      <text x="-3" y="-4" class="inputPortLabel cell_u_id_ex">rs1_addr_in</text>
    </g>
    <g transform="translate(0,370)" s:x="0" s:y="10" s:pid="in0" id="port_u_id_ex~rs2_addr_in">
      <text x="-3" y="-4" class="inputPortLabel cell_u_id_ex">rs2_addr_in</text>
    </g>
    <g transform="translate(0,390)" s:x="0" s:y="10" s:pid="in0" id="port_u_id_ex~rst">
      <text x="-3" y="-4" class="inputPortLabel cell_u_id_ex">rst</text>
    </g>
    <g transform="translate(0,410)" s:x="0" s:y="10" s:pid="in0" id="port_u_id_ex~stall">
      <text x="-3" y="-4" class="inputPortLabel cell_u_id_ex">stall</text>
    </g>
    <g transform="translate(0,430)" s:x="0" s:y="10" s:pid="in0" id="port_u_id_ex~wb_sel_in">
      <text x="-3" y="-4" class="inputPortLabel cell_u_id_ex">wb_sel_in</text>
    </g>
    <g transform="translate(30,10)" s:x="30" s:y="10" s:pid="out0" id="port_u_id_ex~alu_ctrl_out">
      <text x="5" y="-4" style="fill:#000; stroke:none" class="cell_u_id_ex">alu_ctrl_out</text>
    </g>
    <g transform="translate(30,30)" s:x="30" s:y="10" s:pid="out0" id="port_u_id_ex~alu_src_out">
      <text x="5" y="-4" style="fill:#000; stroke:none" class="cell_u_id_ex">alu_src_out</text>
    </g>
    <g transform="translate(30,50)" s:x="30" s:y="10" s:pid="out0" id="port_u_id_ex~branch_out">
      <text x="5" y="-4" style="fill:#000; stroke:none" class="cell_u_id_ex">branch_out</text>
    </g>
    <g transform="translate(30,70)" s:x="30" s:y="10" s:pid="out0" id="port_u_id_ex~funct3_out">
      <text x="5" y="-4" style="fill:#000; stroke:none" class="cell_u_id_ex">funct3_out</text>
    </g>
    <g transform="translate(30,90)" s:x="30" s:y="10" s:pid="out0" id="port_u_id_ex~imm_ext_out">
      <text x="5" y="-4" style="fill:#000; stroke:none" class="cell_u_id_ex">imm_ext_out</text>
    </g>
    <g transform="translate(30,110)" s:x="30" s:y="10" s:pid="out0" id="port_u_id_ex~is_m_ext_out">
      <text x="5" y="-4" style="fill:#000; stroke:none" class="cell_u_id_ex">is_m_ext_out</text>
    </g>
    <g transform="translate(30,130)" s:x="30" s:y="10" s:pid="out0" id="port_u_id_ex~jump_out">
      <text x="5" y="-4" style="fill:#000; stroke:none" class="cell_u_id_ex">jump_out</text>
    </g>
    <g transform="translate(30,150)" s:x="30" s:y="10" s:pid="out0" id="port_u_id_ex~mem_read_out">
      <text x="5" y="-4" style="fill:#000; stroke:none" class="cell_u_id_ex">mem_read_out</text>
    </g>
    <g transform="translate(30,170)" s:x="30" s:y="10" s:pid="out0" id="port_u_id_ex~mem_write_out">
      <text x="5" y="-4" style="fill:#000; stroke:none" class="cell_u_id_ex">mem_write_out</text>
    </g>
    <g transform="translate(30,190)" s:x="30" s:y="10" s:pid="out0" id="port_u_id_ex~pc_out">
      <text x="5" y="-4" style="fill:#000; stroke:none" class="cell_u_id_ex">pc_out</text>
    </g>
    <g transform="translate(30,210)" s:x="30" s:y="10" s:pid="out0" id="port_u_id_ex~pc_plus4_out">
      <text x="5" y="-4" style="fill:#000; stroke:none" class="cell_u_id_ex">pc_plus4_out</text>
    </g>
    <g transform="translate(30,230)" s:x="30" s:y="10" s:pid="out0" id="port_u_id_ex~rd_addr_out">
      <text x="5" y="-4" style="fill:#000; stroke:none" class="cell_u_id_ex">rd_addr_out</text>
    </g>
    <g transform="translate(30,250)" s:x="30" s:y="10" s:pid="out0" id="port_u_id_ex~reg_data1_out">
      <text x="5" y="-4" style="fill:#000; stroke:none" class="cell_u_id_ex">reg_data1_out</text>
    </g>
    <g transform="translate(30,270)" s:x="30" s:y="10" s:pid="out0" id="port_u_id_ex~reg_data2_out">
      <text x="5" y="-4" style="fill:#000; stroke:none" class="cell_u_id_ex">reg_data2_out</text>
    </g>
    <g transform="translate(30,290)" s:x="30" s:y="10" s:pid="out0" id="port_u_id_ex~reg_write_out">
      <text x="5" y="-4" style="fill:#000; stroke:none" class="cell_u_id_ex">reg_write_out</text>
    </g>
    <g transform="translate(30,310)" s:x="30" s:y="10" s:pid="out0" id="port_u_id_ex~rs1_addr_out">
      <text x="5" y="-4" style="fill:#000; stroke:none" class="cell_u_id_ex">rs1_addr_out</text>
    </g>
    <g transform="translate(30,330)" s:x="30" s:y="10" s:pid="out0" id="port_u_id_ex~rs2_addr_out">
      <text x="5" y="-4" style="fill:#000; stroke:none" class="cell_u_id_ex">rs2_addr_out</text>
    </g>
    <g transform="translate(30,350)" s:x="30" s:y="10" s:pid="out0" id="port_u_id_ex~wb_sel_out">
      <text x="5" y="-4" style="fill:#000; stroke:none" class="cell_u_id_ex">wb_sel_out</text>
    </g>
  </g>
  <g s:type="generic" transform="translate(510,303.5)" s:width="30" s:height="40" id="cell_u_if_id">
    <text x="15" y="-4" class="nodelabel cell_u_if_id" s:attribute="ref">if_id_register</text>
    <rect width="30" height="120" s:generic="body" class="cell_u_if_id"/>
    <g transform="translate(0,10)" s:x="0" s:y="10" s:pid="in0" id="port_u_if_id~clk">
      <text x="-3" y="-4" class="inputPortLabel cell_u_if_id">clk</text>
    </g>
    <g transform="translate(0,30)" s:x="0" s:y="10" s:pid="in0" id="port_u_if_id~flush">
      <text x="-3" y="-4" class="inputPortLabel cell_u_if_id">flush</text>
    </g>
    <g transform="translate(0,50)" s:x="0" s:y="10" s:pid="in0" id="port_u_if_id~instruction_in">
      <text x="-3" y="-4" class="inputPortLabel cell_u_if_id">instruction_in</text>
    </g>
    <g transform="translate(0,70)" s:x="0" s:y="10" s:pid="in0" id="port_u_if_id~pc_in">
      <text x="-3" y="-4" class="inputPortLabel cell_u_if_id">pc_in</text>
    </g>
    <g transform="translate(0,90)" s:x="0" s:y="10" s:pid="in0" id="port_u_if_id~rst">
      <text x="-3" y="-4" class="inputPortLabel cell_u_if_id">rst</text>
    </g>
    <g transform="translate(0,110)" s:x="0" s:y="10" s:pid="in0" id="port_u_if_id~stall">
      <text x="-3" y="-4" class="inputPortLabel cell_u_if_id">stall</text>
    </g>
    <g transform="translate(30,10)" s:x="30" s:y="10" s:pid="out0" id="port_u_if_id~instruction_out">
      <text x="5" y="-4" style="fill:#000; stroke:none" class="cell_u_if_id">instruction_out</text>
    </g>
    <g transform="translate(30,30)" s:x="30" s:y="10" s:pid="out0" id="port_u_if_id~pc_out">
      <text x="5" y="-4" style="fill:#000; stroke:none" class="cell_u_if_id">pc_out</text>
    </g>
  </g>
  <g s:type="generic" transform="translate(287,355)" s:width="30" s:height="40" id="cell_u_imem">
    <text x="15" y="-4" class="nodelabel cell_u_imem" s:attribute="ref">instruction_memory</text>
    <rect width="30" height="40" s:generic="body" class="cell_u_imem"/>
    <g transform="translate(0,10)" s:x="0" s:y="10" s:pid="in0" id="port_u_imem~addr">
      <text x="-3" y="-4" class="inputPortLabel cell_u_imem">addr</text>
    </g>
    <g transform="translate(0,30)" s:x="0" s:y="10" s:pid="in0" id="port_u_imem~clk">
      <text x="-3" y="-4" class="inputPortLabel cell_u_imem">clk</text>
    </g>
    <g transform="translate(30,10)" s:x="30" s:y="10" s:pid="out0" id="port_u_imem~instruction">
      <text x="5" y="-4" style="fill:#000; stroke:none" class="cell_u_imem">instruction</text>
    </g>
  </g>
  <g s:type="generic" transform="translate(964.3333333333334,283.5)" s:width="30" s:height="40" id="cell_u_immgen">
    <text x="15" y="-4" class="nodelabel cell_u_immgen" s:attribute="ref">immgen</text>
    <rect width="30" height="40" s:generic="body" class="cell_u_immgen"/>
    <g transform="translate(0,10)" s:x="0" s:y="10" s:pid="in0" id="port_u_immgen~imm_src">
      <text x="-3" y="-4" class="inputPortLabel cell_u_immgen">imm_src</text>
    </g>
    <g transform="translate(0,30)" s:x="0" s:y="10" s:pid="in0" id="port_u_immgen~inst">
      <text x="-3" y="-4" class="inputPortLabel cell_u_immgen">inst</text>
    </g>
    <g transform="translate(30,10)" s:x="30" s:y="10" s:pid="out0" id="port_u_immgen~imm_ext">
      <text x="5" y="-4" style="fill:#000; stroke:none" class="cell_u_immgen">imm_ext</text>
    </g>
  </g>
  <g s:type="generic" transform="translate(147,355)" s:width="30" s:height="40" id="cell_u_pc">
    <text x="15" y="-4" class="nodelabel cell_u_pc" s:attribute="ref">program_counter_32</text>
    <rect width="30" height="100" s:generic="body" class="cell_u_pc"/>
    <g transform="translate(0,10)" s:x="0" s:y="10" s:pid="in0" id="port_u_pc~clk">
      <text x="-3" y="-4" class="inputPortLabel cell_u_pc">clk</text>
    </g>
    <g transform="translate(0,30)" s:x="0" s:y="10" s:pid="in0" id="port_u_pc~pc_src">
      <text x="-3" y="-4" class="inputPortLabel cell_u_pc">pc_src</text>
    </g>
    <g transform="translate(0,50)" s:x="0" s:y="10" s:pid="in0" id="port_u_pc~pc_write">
      <text x="-3" y="-4" class="inputPortLabel cell_u_pc">pc_write</text>
    </g>
    <g transform="translate(0,70)" s:x="0" s:y="10" s:pid="in0" id="port_u_pc~rst">
      <text x="-3" y="-4" class="inputPortLabel cell_u_pc">rst</text>
    </g>
    <g transform="translate(0,90)" s:x="0" s:y="10" s:pid="in0" id="port_u_pc~target_pc">
      <text x="-3" y="-4" class="inputPortLabel cell_u_pc">target_pc</text>
    </g>
    <g transform="translate(30,10)" s:x="30" s:y="10" s:pid="out0" id="port_u_pc~pc_out">
      <text x="5" y="-4" style="fill:#000; stroke:none" class="cell_u_pc">pc_out</text>
    </g>
    <g transform="translate(30,30)" s:x="30" s:y="10" s:pid="out0" id="port_u_pc~pc_plus4">
      <text x="5" y="-4" style="fill:#000; stroke:none" class="cell_u_pc">pc_plus4</text>
    </g>
  </g>
  <g s:type="generic" transform="translate(966,723)" s:width="30" s:height="40" id="cell_u_regfile">
    <text x="15" y="-4" class="nodelabel cell_u_regfile" s:attribute="ref">regfile</text>
    <rect width="30" height="140" s:generic="body" class="cell_u_regfile"/>
    <g transform="translate(0,10)" s:x="0" s:y="10" s:pid="in0" id="port_u_regfile~clk">
      <text x="-3" y="-4" class="inputPortLabel cell_u_regfile">clk</text>
    </g>
    <g transform="translate(0,30)" s:x="0" s:y="10" s:pid="in0" id="port_u_regfile~rd_addr">
      <text x="-3" y="-4" class="inputPortLabel cell_u_regfile">rd_addr</text>
    </g>
    <g transform="translate(0,50)" s:x="0" s:y="10" s:pid="in0" id="port_u_regfile~rd_data">
      <text x="-3" y="-4" class="inputPortLabel cell_u_regfile">rd_data</text>
    </g>
    <g transform="translate(0,70)" s:x="0" s:y="10" s:pid="in0" id="port_u_regfile~reg_write">
      <text x="-3" y="-4" class="inputPortLabel cell_u_regfile">reg_write</text>
    </g>
    <g transform="translate(0,90)" s:x="0" s:y="10" s:pid="in0" id="port_u_regfile~rs1_addr">
      <text x="-3" y="-4" class="inputPortLabel cell_u_regfile">rs1_addr</text>
    </g>
    <g transform="translate(0,110)" s:x="0" s:y="10" s:pid="in0" id="port_u_regfile~rs2_addr">
      <text x="-3" y="-4" class="inputPortLabel cell_u_regfile">rs2_addr</text>
    </g>
    <g transform="translate(0,130)" s:x="0" s:y="10" s:pid="in0" id="port_u_regfile~rst">
      <text x="-3" y="-4" class="inputPortLabel cell_u_regfile">rst</text>
    </g>
    <g transform="translate(30,10)" s:x="30" s:y="10" s:pid="out0" id="port_u_regfile~rs1_data">
      <text x="5" y="-4" style="fill:#000; stroke:none" class="cell_u_regfile">rs1_data</text>
    </g>
    <g transform="translate(30,30)" s:x="30" s:y="10" s:pid="out0" id="port_u_regfile~rs2_data">
      <text x="5" y="-4" style="fill:#000; stroke:none" class="cell_u_regfile">rs2_data</text>
    </g>
  </g>
  <g s:type="inputExt" transform="translate(12,304)" s:width="30" s:height="20" id="cell_clk">
    <text x="15" y="-4" class="nodelabel cell_clk" s:attribute="ref">clk</text>
    <s:alias val="$_inputExt_"/>
    <path d="M0,0 L0,20 L15,20 L30,10 L15,0 Z" class="cell_clk"/>
    <g s:x="28" s:y="10" s:pid="Y"/>
  </g>
  <g s:type="inputExt" transform="translate(12,866)" s:width="30" s:height="20" id="cell_rst">
    <text x="15" y="-4" class="nodelabel cell_rst" s:attribute="ref">rst</text>
    <s:alias val="$_inputExt_"/>
    <path d="M0,0 L0,20 L15,20 L30,10 L15,0 Z" class="cell_rst"/>
    <g s:x="28" s:y="10" s:pid="Y"/>
  </g>
  <g s:type="outputExt" transform="translate(1279,22)" s:width="30" s:height="20" id="cell_pc_debug">
    <text x="15" y="-4" class="nodelabel cell_pc_debug" s:attribute="ref">pc_debug</text>
    <s:alias val="$_outputExt_"/>
    <path d="M30,0 L30,20 L15,20 L0,10 L15,0 Z" class="cell_pc_debug"/>
    <g s:x="0" s:y="10" s:pid="A"/>
  </g>
  <g s:type="outputExt" transform="translate(1279,87)" s:width="30" s:height="20" id="cell_instr_debug">
    <text x="15" y="-4" class="nodelabel cell_instr_debug" s:attribute="ref">instr_debug</text>
    <s:alias val="$_outputExt_"/>
    <path d="M30,0 L30,20 L15,20 L0,10 L15,0 Z" class="cell_instr_debug"/>
    <g s:x="0" s:y="10" s:pid="A"/>
  </g>
  <g s:type="outputExt" transform="translate(1279,723.5)" s:width="30" s:height="20" id="cell_rs1_debug">
    <text x="15" y="-4" class="nodelabel cell_rs1_debug" s:attribute="ref">rs1_debug</text>
    <s:alias val="$_outputExt_"/>
    <path d="M30,0 L30,20 L15,20 L0,10 L15,0 Z" class="cell_rs1_debug"/>
    <g s:x="0" s:y="10" s:pid="A"/>
  </g>
  <g s:type="outputExt" transform="translate(1279,788.5)" s:width="30" s:height="20" id="cell_rs2_debug">
    <text x="15" y="-4" class="nodelabel cell_rs2_debug" s:attribute="ref">rs2_debug</text>
    <s:alias val="$_outputExt_"/>
    <path d="M30,0 L30,20 L15,20 L0,10 L15,0 Z" class="cell_rs2_debug"/>
    <g s:x="0" s:y="10" s:pid="A"/>
  </g>
  <g s:type="constant" transform="translate(12,469)" s:width="30" s:height="20" id="cell_0">
    <text x="15" y="-4" class="nodelabel cell_0" s:attribute="ref">0</text>
    <s:alias val="$_constant_"/>
    <rect width="30" height="20" class="cell_0"/>
    <g s:x="30" s:y="10" s:pid="Y"/>
  </g>
  <g s:type="constant" transform="translate(12,395.5)" s:width="30" s:height="20" id="cell_1">
    <text x="15" y="-4" class="nodelabel cell_1" s:attribute="ref">1</text>
    <s:alias val="$_constant_"/>
    <rect width="30" height="20" class="cell_1"/>
    <g s:x="30" s:y="10" s:pid="Y"/>
  </g>
  <g s:type="constant" transform="translate(12,774.5)" s:width="30" s:height="20" id="cell_00000000000000000000000000000000">
    <text x="15" y="-4" class="nodelabel cell_00000000000000000000000000000000" s:attribute="ref">0x0</text>
    <s:alias val="$_constant_"/>
    <rect width="30" height="20" class="cell_00000000000000000000000000000000"/>
    <g s:x="30" s:y="10" s:pid="Y"/>
  </g>
  <g s:type="constant" transform="translate(775,754.5)" s:width="30" s:height="20" id="cell_00000">
    <text x="15" y="-4" class="nodelabel cell_00000" s:attribute="ref">0x0</text>
    <s:alias val="$_constant_"/>
    <rect width="30" height="20" class="cell_00000"/>
    <g s:x="30" s:y="10" s:pid="Y"/>
  </g>
  <g s:type="split" transform="translate(667,572)" s:width="5" s:height="40" id="cell_$split$,36,37,38,39,40,41,42,43,44,45,46,47,48,49,50,51,52,53,54,55,56,57,58,59,60,61,62,63,64,65,66,67,">
    <rect width="5" height="120" class="splitjoinBody" s:generic="body"/>
    <s:alias val="$_split_"/>
    <g s:x="0" s:y="20" s:pid="in"/>
    <g transform="translate(4,10)" s:x="4" s:y="10" s:pid="out0">
      <text x="5" y="-4">12:14</text>
    </g>
    <g transform="translate(4,30)" s:x="4" s:y="10" s:pid="out0">
      <text x="5" y="-4">25:31</text>
    </g>
    <g transform="translate(4,50)" s:x="4" s:y="10" s:pid="out0">
      <text x="5" y="-4">0:6</text>
    </g>
    <g transform="translate(4,70)" s:x="4" s:y="10" s:pid="out0">
      <text x="5" y="-4">7:11</text>
    </g>
    <g transform="translate(4,90)" s:x="4" s:y="10" s:pid="out0">
      <text x="5" y="-4">15:19</text>
    </g>
    <g transform="translate(4,110)" s:x="4" s:y="10" s:pid="out0">
      <text x="5" y="-4">20:24</text>
    </g>
  </g>
  <line x1="671.5" x2="671.5" y1="582" y2="345.5" class="net_48,49,50"/>
  <line x1="671.5" x2="775" y1="345.5" y2="345.5" class="net_48,49,50"/>
  <line x1="671.5" x2="671.5" y1="582" y2="345.5" class="net_48,49,50"/>
  <line x1="671.5" x2="713" y1="345.5" y2="345.5" class="net_48,49,50"/>
  <line x1="713" x2="713" y1="345.5" y2="262.5" class="net_48,49,50"/>
  <circle cx="713" cy="345.5" r="2" style="fill:#000" class="net_48,49,50"/>
  <line x1="713" x2="1279" y1="262.5" y2="262.5" class="net_48,49,50"/>
  <line x1="672" x2="713" y1="602.5" y2="602.5" class="net_61,62,63,64,65,66,67"/>
  <line x1="713" x2="713" y1="602.5" y2="365.5" class="net_61,62,63,64,65,66,67"/>
  <line x1="713" x2="775" y1="365.5" y2="365.5" class="net_61,62,63,64,65,66,67"/>
  <line x1="672" x2="723" y1="622.5" y2="622.5" class="net_36,37,38,39,40,41,42"/>
  <line x1="723" x2="723" y1="622.5" y2="385.5" class="net_36,37,38,39,40,41,42"/>
  <line x1="723" x2="775" y1="385.5" y2="385.5" class="net_36,37,38,39,40,41,42"/>
  <line x1="806" x2="871" y1="345.5" y2="345.5" class="net_132,133,134,135"/>
  <line x1="871" x2="871" y1="345.5" y2="162.5" class="net_132,133,134,135"/>
  <line x1="871" x2="1279" y1="162.5" y2="162.5" class="net_132,133,134,135"/>
  <line x1="806" x2="881" y1="365.5" y2="365.5" class="net_136"/>
  <line x1="881" x2="881" y1="365.5" y2="182.5" class="net_136"/>
  <line x1="881" x2="1279" y1="182.5" y2="182.5" class="net_136"/>
  <line x1="806" x2="891" y1="385.5" y2="385.5" class="net_137"/>
  <line x1="891" x2="891" y1="385.5" y2="202.5" class="net_137"/>
  <line x1="891" x2="1279" y1="202.5" y2="202.5" class="net_137"/>
  <line x1="40" x2="52" y1="314" y2="314" class="net_2"/>
  <line x1="52" x2="52" y1="314" y2="222.5" class="net_2"/>
  <circle cx="52" cy="314" r="2" style="fill:#000" class="net_2"/>
  <line x1="52" x2="1279" y1="222.5" y2="222.5" class="net_2"/>
  <line x1="40" x2="510" y1="314" y2="314" class="net_2"/>
  <line x1="40" x2="52" y1="314" y2="314" class="net_2"/>
  <line x1="52" x2="52" y1="314" y2="365.5" class="net_2"/>
  <circle cx="52" cy="365.5" r="2" style="fill:#000" class="net_2"/>
  <line x1="52" x2="147" y1="365.5" y2="365.5" class="net_2"/>
  <line x1="40" x2="52" y1="314" y2="314" class="net_2"/>
  <line x1="52" x2="52" y1="314" y2="733.5" class="net_2"/>
  <line x1="52" x2="966" y1="733.5" y2="733.5" class="net_2"/>
  <line x1="42" x2="62" y1="479" y2="479" class="net_467"/>
  <line x1="62" x2="62" y1="479" y2="242.5" class="net_467"/>
  <circle cx="62" cy="479" r="2" style="fill:#000" class="net_467"/>
  <line x1="62" x2="1279" y1="242.5" y2="242.5" class="net_467"/>
  <line x1="42" x2="62" y1="479" y2="479" class="net_467"/>
  <line x1="62" x2="62" y1="479" y2="887" class="net_467"/>
  <line x1="62" x2="1186" y1="887" y2="887" class="net_467"/>
  <line x1="1186" x2="1186" y1="887" y2="562.5" class="net_467"/>
  <line x1="1186" x2="1279" y1="562.5" y2="562.5" class="net_467"/>
  <line x1="42" x2="62" y1="479" y2="479" class="net_467"/>
  <line x1="62" x2="62" y1="479" y2="334" class="net_467"/>
  <circle cx="62" cy="334" r="2" style="fill:#000" class="net_467"/>
  <line x1="62" x2="510" y1="334" y2="334" class="net_467"/>
  <line x1="42" x2="415" y1="479" y2="479" class="net_467"/>
  <line x1="415" x2="415" y1="479" y2="414" class="net_467"/>
  <line x1="415" x2="510" y1="414" y2="414" class="net_467"/>
  <line x1="42" x2="62" y1="479" y2="479" class="net_467"/>
  <line x1="62" x2="62" y1="479" y2="385.5" class="net_467"/>
  <circle cx="62" cy="385.5" r="2" style="fill:#000" class="net_467"/>
  <line x1="62" x2="147" y1="385.5" y2="385.5" class="net_467"/>
  <line x1="42" x2="62" y1="479" y2="479" class="net_467"/>
  <line x1="62" x2="62" y1="479" y2="795.5" class="net_467"/>
  <line x1="62" x2="881" y1="795.5" y2="795.5" class="net_467"/>
  <line x1="881" x2="881" y1="795.5" y2="793.5" class="net_467"/>
  <circle cx="62" cy="795.5" r="2" style="fill:#000" class="net_467"/>
  <line x1="881" x2="966" y1="793.5" y2="793.5" class="net_467"/>
  <line x1="995.3333333333334" x2="1056" y1="294" y2="294" class="net_157,158,159,160,161,162,163,164,165,166,167,168,169,170,171,172,173,174,175,176,177,178,179,180,181,182,183,184,185,186,187,188"/>
  <line x1="1056" x2="1056" y1="294" y2="282.5" class="net_157,158,159,160,161,162,163,164,165,166,167,168,169,170,171,172,173,174,175,176,177,178,179,180,181,182,183,184,185,186,187,188"/>
  <line x1="1056" x2="1279" y1="282.5" y2="282.5" class="net_157,158,159,160,161,162,163,164,165,166,167,168,169,170,171,172,173,174,175,176,177,178,179,180,181,182,183,184,185,186,187,188"/>
  <line x1="806" x2="1056" y1="425.5" y2="425.5" class="net_141"/>
  <line x1="1056" x2="1056" y1="425.5" y2="302.5" class="net_141"/>
  <line x1="1056" x2="1279" y1="302.5" y2="302.5" class="net_141"/>
  <line x1="806" x2="871" y1="445.5" y2="445.5" class="net_142"/>
  <line x1="871" x2="871" y1="445.5" y2="436.5" class="net_142"/>
  <line x1="871" x2="1066" y1="436.5" y2="436.5" class="net_142"/>
  <line x1="1066" x2="1066" y1="436.5" y2="322.5" class="net_142"/>
  <line x1="1066" x2="1279" y1="322.5" y2="322.5" class="net_142"/>
  <line x1="806" x2="871" y1="465.5" y2="465.5" class="net_143"/>
  <line x1="871" x2="871" y1="465.5" y2="447.5" class="net_143"/>
  <line x1="871" x2="1076" y1="447.5" y2="447.5" class="net_143"/>
  <line x1="1076" x2="1076" y1="447.5" y2="342.5" class="net_143"/>
  <line x1="1076" x2="1279" y1="342.5" y2="342.5" class="net_143"/>
  <line x1="806" x2="881" y1="485.5" y2="485.5" class="net_144"/>
  <line x1="881" x2="881" y1="485.5" y2="458.5" class="net_144"/>
  <line x1="881" x2="1086" y1="458.5" y2="458.5" class="net_144"/>
  <line x1="1086" x2="1086" y1="458.5" y2="362.5" class="net_144"/>
  <line x1="1086" x2="1279" y1="362.5" y2="362.5" class="net_144"/>
  <line x1="541" x2="642" y1="334" y2="334" class="net_225,226,227,228,229,230,231,232,233,234,235,236,237,238,239,240,241,242,243,244,245,246,247,248,249,250,251,252,253,254,255,256"/>
  <line x1="642" x2="642" y1="334" y2="548" class="net_225,226,227,228,229,230,231,232,233,234,235,236,237,238,239,240,241,242,243,244,245,246,247,248,249,250,251,252,253,254,255,256"/>
  <line x1="642" x2="1096" y1="548" y2="548" class="net_225,226,227,228,229,230,231,232,233,234,235,236,237,238,239,240,241,242,243,244,245,246,247,248,249,250,251,252,253,254,255,256"/>
  <line x1="1096" x2="1096" y1="548" y2="382.5" class="net_225,226,227,228,229,230,231,232,233,234,235,236,237,238,239,240,241,242,243,244,245,246,247,248,249,250,251,252,253,254,255,256"/>
  <line x1="1096" x2="1279" y1="382.5" y2="382.5" class="net_225,226,227,228,229,230,231,232,233,234,235,236,237,238,239,240,241,242,243,244,245,246,247,248,249,250,251,252,253,254,255,256"/>
  <line x1="178" x2="237" y1="385.5" y2="385.5" class="net_289,290,291,292,293,294,295,296,297,298,299,300,301,302,303,304,305,306,307,308,309,310,311,312,313,314,315,316,317,318,319,320"/>
  <line x1="237" x2="237" y1="385.5" y2="559" class="net_289,290,291,292,293,294,295,296,297,298,299,300,301,302,303,304,305,306,307,308,309,310,311,312,313,314,315,316,317,318,319,320"/>
  <line x1="237" x2="1106" y1="559" y2="559" class="net_289,290,291,292,293,294,295,296,297,298,299,300,301,302,303,304,305,306,307,308,309,310,311,312,313,314,315,316,317,318,319,320"/>
  <line x1="1106" x2="1106" y1="559" y2="402.5" class="net_289,290,291,292,293,294,295,296,297,298,299,300,301,302,303,304,305,306,307,308,309,310,311,312,313,314,315,316,317,318,319,320"/>
  <line x1="1106" x2="1279" y1="402.5" y2="402.5" class="net_289,290,291,292,293,294,295,296,297,298,299,300,301,302,303,304,305,306,307,308,309,310,311,312,313,314,315,316,317,318,319,320"/>
  <line x1="672" x2="1116" y1="642.5" y2="642.5" class="net_43,44,45,46,47"/>
  <line x1="1116" x2="1116" y1="642.5" y2="422.5" class="net_43,44,45,46,47"/>
  <line x1="1116" x2="1279" y1="422.5" y2="422.5" class="net_43,44,45,46,47"/>
  <line x1="997" x2="1136" y1="733.5" y2="733.5" class="net_68,69,70,71,72,73,74,75,76,77,78,79,80,81,82,83,84,85,86,87,88,89,90,91,92,93,94,95,96,97,98,99"/>
  <line x1="1136" x2="1136" y1="733.5" y2="442.5" class="net_68,69,70,71,72,73,74,75,76,77,78,79,80,81,82,83,84,85,86,87,88,89,90,91,92,93,94,95,96,97,98,99"/>
  <circle cx="1136" cy="733.5" r="2" style="fill:#000" class="net_68,69,70,71,72,73,74,75,76,77,78,79,80,81,82,83,84,85,86,87,88,89,90,91,92,93,94,95,96,97,98,99"/>
  <line x1="1136" x2="1279" y1="442.5" y2="442.5" class="net_68,69,70,71,72,73,74,75,76,77,78,79,80,81,82,83,84,85,86,87,88,89,90,91,92,93,94,95,96,97,98,99"/>
  <line x1="997" x2="1279" y1="733.5" y2="733.5" class="net_68,69,70,71,72,73,74,75,76,77,78,79,80,81,82,83,84,85,86,87,88,89,90,91,92,93,94,95,96,97,98,99"/>
  <line x1="997" x2="1156" y1="753.5" y2="753.5" class="net_100,101,102,103,104,105,106,107,108,109,110,111,112,113,114,115,116,117,118,119,120,121,122,123,124,125,126,127,128,129,130,131"/>
  <line x1="1156" x2="1156" y1="753.5" y2="462.5" class="net_100,101,102,103,104,105,106,107,108,109,110,111,112,113,114,115,116,117,118,119,120,121,122,123,124,125,126,127,128,129,130,131"/>
  <circle cx="1156" cy="753.5" r="2" style="fill:#000" class="net_100,101,102,103,104,105,106,107,108,109,110,111,112,113,114,115,116,117,118,119,120,121,122,123,124,125,126,127,128,129,130,131"/>
  <line x1="1156" x2="1279" y1="462.5" y2="462.5" class="net_100,101,102,103,104,105,106,107,108,109,110,111,112,113,114,115,116,117,118,119,120,121,122,123,124,125,126,127,128,129,130,131"/>
  <line x1="997" x2="1156" y1="753.5" y2="753.5" class="net_100,101,102,103,104,105,106,107,108,109,110,111,112,113,114,115,116,117,118,119,120,121,122,123,124,125,126,127,128,129,130,131"/>
  <line x1="1156" x2="1156" y1="753.5" y2="798.5" class="net_100,101,102,103,104,105,106,107,108,109,110,111,112,113,114,115,116,117,118,119,120,121,122,123,124,125,126,127,128,129,130,131"/>
  <line x1="1156" x2="1279" y1="798.5" y2="798.5" class="net_100,101,102,103,104,105,106,107,108,109,110,111,112,113,114,115,116,117,118,119,120,121,122,123,124,125,126,127,128,129,130,131"/>
  <line x1="806" x2="881" y1="505.5" y2="505.5" class="net_145"/>
  <line x1="881" x2="881" y1="505.5" y2="653.5" class="net_145"/>
  <line x1="881" x2="1126" y1="653.5" y2="653.5" class="net_145"/>
  <line x1="1126" x2="1126" y1="653.5" y2="482.5" class="net_145"/>
  <line x1="1126" x2="1279" y1="482.5" y2="482.5" class="net_145"/>
  <line x1="672" x2="723" y1="662.5" y2="662.5" class="net_51,52,53,54,55"/>
  <line x1="723" x2="723" y1="662.5" y2="664.5" class="net_51,52,53,54,55"/>
  <line x1="723" x2="1146" y1="664.5" y2="664.5" class="net_51,52,53,54,55"/>
  <line x1="1146" x2="1146" y1="664.5" y2="502.5" class="net_51,52,53,54,55"/>
  <circle cx="723" cy="664.5" r="2" style="fill:#000" class="net_51,52,53,54,55"/>
  <line x1="1146" x2="1279" y1="502.5" y2="502.5" class="net_51,52,53,54,55"/>
  <line x1="672" x2="723" y1="662.5" y2="662.5" class="net_51,52,53,54,55"/>
  <line x1="723" x2="723" y1="662.5" y2="813.5" class="net_51,52,53,54,55"/>
  <line x1="723" x2="966" y1="813.5" y2="813.5" class="net_51,52,53,54,55"/>
  <line x1="671.5" x2="671.5" y1="683" y2="702" class="net_56,57,58,59,60"/>
  <line x1="671.5" x2="1166" y1="702" y2="702" class="net_56,57,58,59,60"/>
  <line x1="1166" x2="1166" y1="702" y2="522.5" class="net_56,57,58,59,60"/>
  <line x1="1166" x2="1279" y1="522.5" y2="522.5" class="net_56,57,58,59,60"/>
  <line x1="671.5" x2="671.5" y1="683" y2="702" class="net_56,57,58,59,60"/>
  <line x1="671.5" x2="713" y1="702" y2="702" class="net_56,57,58,59,60"/>
  <line x1="713" x2="713" y1="702" y2="833.5" class="net_56,57,58,59,60"/>
  <circle cx="713" cy="702" r="2" style="fill:#000" class="net_56,57,58,59,60"/>
  <line x1="713" x2="966" y1="833.5" y2="833.5" class="net_56,57,58,59,60"/>
  <line x1="40" x2="1176" y1="876" y2="876" class="net_3"/>
  <line x1="1176" x2="1176" y1="876" y2="542.5" class="net_3"/>
  <line x1="1176" x2="1279" y1="542.5" y2="542.5" class="net_3"/>
  <line x1="40" x2="72" y1="876" y2="876" class="net_3"/>
  <line x1="72" x2="72" y1="876" y2="468" class="net_3"/>
  <line x1="72" x2="405" y1="468" y2="468" class="net_3"/>
  <line x1="405" x2="405" y1="468" y2="394" class="net_3"/>
  <circle cx="72" cy="876" r="2" style="fill:#000" class="net_3"/>
  <circle cx="72" cy="468" r="2" style="fill:#000" class="net_3"/>
  <line x1="405" x2="510" y1="394" y2="394" class="net_3"/>
  <line x1="40" x2="72" y1="876" y2="876" class="net_3"/>
  <line x1="72" x2="72" y1="876" y2="425.5" class="net_3"/>
  <line x1="72" x2="147" y1="425.5" y2="425.5" class="net_3"/>
  <line x1="40" x2="881" y1="876" y2="876" class="net_3"/>
  <line x1="881" x2="881" y1="876" y2="853.5" class="net_3"/>
  <circle cx="881" cy="876" r="2" style="fill:#000" class="net_3"/>
  <line x1="881" x2="966" y1="853.5" y2="853.5" class="net_3"/>
  <line x1="806" x2="871" y1="525.5" y2="525.5" class="net_146,147"/>
  <line x1="871" x2="871" y1="525.5" y2="898" class="net_146,147"/>
  <line x1="871" x2="1196" y1="898" y2="898" class="net_146,147"/>
  <line x1="1196" x2="1196" y1="898" y2="582.5" class="net_146,147"/>
  <line x1="1196" x2="1279" y1="582.5" y2="582.5" class="net_146,147"/>
  <line x1="318" x2="395" y1="365.5" y2="365.5" class="net_435,436,437,438,439,440,441,442,443,444,445,446,447,448,449,450,451,452,453,454,455,456,457,458,459,460,461,462,463,464,465,466"/>
  <line x1="395" x2="395" y1="365.5" y2="354" class="net_435,436,437,438,439,440,441,442,443,444,445,446,447,448,449,450,451,452,453,454,455,456,457,458,459,460,461,462,463,464,465,466"/>
  <line x1="395" x2="510" y1="354" y2="354" class="net_435,436,437,438,439,440,441,442,443,444,445,446,447,448,449,450,451,452,453,454,455,456,457,458,459,460,461,462,463,464,465,466"/>
  <line x1="178" x2="247" y1="365.5" y2="365.5" class="net_4,5,6,7,8,9,10,11,12,13,14,15,16,17,18,19,20,21,22,23,24,25,26,27,28,29,30,31,32,33,34,35"/>
  <line x1="247" x2="247" y1="365.5" y2="408" class="net_4,5,6,7,8,9,10,11,12,13,14,15,16,17,18,19,20,21,22,23,24,25,26,27,28,29,30,31,32,33,34,35"/>
  <line x1="247" x2="395" y1="408" y2="408" class="net_4,5,6,7,8,9,10,11,12,13,14,15,16,17,18,19,20,21,22,23,24,25,26,27,28,29,30,31,32,33,34,35"/>
  <line x1="395" x2="395" y1="408" y2="374" class="net_4,5,6,7,8,9,10,11,12,13,14,15,16,17,18,19,20,21,22,23,24,25,26,27,28,29,30,31,32,33,34,35"/>
  <circle cx="247" cy="365.5" r="2" style="fill:#000" class="net_4,5,6,7,8,9,10,11,12,13,14,15,16,17,18,19,20,21,22,23,24,25,26,27,28,29,30,31,32,33,34,35"/>
  <line x1="395" x2="510" y1="374" y2="374" class="net_4,5,6,7,8,9,10,11,12,13,14,15,16,17,18,19,20,21,22,23,24,25,26,27,28,29,30,31,32,33,34,35"/>
  <line x1="178" x2="287" y1="365.5" y2="365.5" class="net_4,5,6,7,8,9,10,11,12,13,14,15,16,17,18,19,20,21,22,23,24,25,26,27,28,29,30,31,32,33,34,35"/>
  <line x1="178" x2="247" y1="365.5" y2="365.5" class="net_4,5,6,7,8,9,10,11,12,13,14,15,16,17,18,19,20,21,22,23,24,25,26,27,28,29,30,31,32,33,34,35"/>
  <line x1="247" x2="247" y1="365.5" y2="32" class="net_4,5,6,7,8,9,10,11,12,13,14,15,16,17,18,19,20,21,22,23,24,25,26,27,28,29,30,31,32,33,34,35"/>
  <line x1="247" x2="1279" y1="32" y2="32" class="net_4,5,6,7,8,9,10,11,12,13,14,15,16,17,18,19,20,21,22,23,24,25,26,27,28,29,30,31,32,33,34,35"/>
  <line x1="806" x2="901" y1="405.5" y2="405.5" class="net_138,139,140"/>
  <line x1="901" x2="901" y1="405.5" y2="294" class="net_138,139,140"/>
  <line x1="901" x2="964.3333333333334" y1="294" y2="294" class="net_138,139,140"/>
  <line x1="541" x2="964.3333333333334" y1="314" y2="314" class="net_36,37,38,39,40,41,42,43,44,45,46,47,48,49,50,51,52,53,54,55,56,57,58,59,60,61,62,63,64,65,66,67"/>
  <line x1="541" x2="652" y1="314" y2="314" class="net_36,37,38,39,40,41,42,43,44,45,46,47,48,49,50,51,52,53,54,55,56,57,58,59,60,61,62,63,64,65,66,67"/>
  <line x1="652" x2="652" y1="314" y2="97" class="net_36,37,38,39,40,41,42,43,44,45,46,47,48,49,50,51,52,53,54,55,56,57,58,59,60,61,62,63,64,65,66,67"/>
  <circle cx="652" cy="314" r="2" style="fill:#000" class="net_36,37,38,39,40,41,42,43,44,45,46,47,48,49,50,51,52,53,54,55,56,57,58,59,60,61,62,63,64,65,66,67"/>
  <line x1="652" x2="1279" y1="97" y2="97" class="net_36,37,38,39,40,41,42,43,44,45,46,47,48,49,50,51,52,53,54,55,56,57,58,59,60,61,62,63,64,65,66,67"/>
  <line x1="541" x2="652" y1="314" y2="314" class="net_36,37,38,39,40,41,42,43,44,45,46,47,48,49,50,51,52,53,54,55,56,57,58,59,60,61,62,63,64,65,66,67"/>
  <line x1="652" x2="652" y1="314" y2="592.5" class="net_36,37,38,39,40,41,42,43,44,45,46,47,48,49,50,51,52,53,54,55,56,57,58,59,60,61,62,63,64,65,66,67"/>
  <line x1="652" x2="667" y1="592.5" y2="592.5" class="net_36,37,38,39,40,41,42,43,44,45,46,47,48,49,50,51,52,53,54,55,56,57,58,59,60,61,62,63,64,65,66,67"/>
  <line x1="42" x2="147" y1="405.5" y2="405.5" class="net_472"/>
  <line x1="42" x2="82" y1="784.5" y2="784.5" class="net_473,474,475,476,477,478,479,480,481,482,483,484,485,486,487,488,489,490,491,492,493,494,495,496,497,498,499,500,501,502,503,504"/>
  <line x1="82" x2="82" y1="784.5" y2="445.5" class="net_473,474,475,476,477,478,479,480,481,482,483,484,485,486,487,488,489,490,491,492,493,494,495,496,497,498,499,500,501,502,503,504"/>
  <circle cx="82" cy="784.5" r="2" style="fill:#000" class="net_473,474,475,476,477,478,479,480,481,482,483,484,485,486,487,488,489,490,491,492,493,494,495,496,497,498,499,500,501,502,503,504"/>
  <line x1="82" x2="147" y1="445.5" y2="445.5" class="net_473,474,475,476,477,478,479,480,481,482,483,484,485,486,487,488,489,490,491,492,493,494,495,496,497,498,499,500,501,502,503,504"/>
  <line x1="42" x2="881" y1="784.5" y2="784.5" class="net_473,474,475,476,477,478,479,480,481,482,483,484,485,486,487,488,489,490,491,492,493,494,495,496,497,498,499,500,501,502,503,504"/>
  <line x1="881" x2="881" y1="784.5" y2="773.5" class="net_473,474,475,476,477,478,479,480,481,482,483,484,485,486,487,488,489,490,491,492,493,494,495,496,497,498,499,500,501,502,503,504"/>
  <line x1="881" x2="966" y1="773.5" y2="773.5" class="net_473,474,475,476,477,478,479,480,481,482,483,484,485,486,487,488,489,490,491,492,493,494,495,496,497,498,499,500,501,502,503,504"/>
  <line x1="805" x2="881" y1="764.5" y2="764.5" class="net_505,506,507,508,509"/>
  <line x1="881" x2="881" y1="764.5" y2="753.5" class="net_505,506,507,508,509"/>
  <line x1="881" x2="966" y1="753.5" y2="753.5" class="net_505,506,507,508,509"/>
</svg>
