<svg xmlns="http://www.w3.org/2000/svg" xmlns:xlink="http://www.w3.org/1999/xlink" xmlns:s="https://github.com/nturley/netlistsvg" width="976" height="487">
  <style>svg {
    stroke:#000;
    fill:none;
  }
  text {
    fill:#000;
    stroke:none;
    font-size:10px;
    font-weight: bold;
    font-family: "Courier New", monospace;
  }
  .nodelabel {
    text-anchor: middle;
  }
  .inputPortLabel {
    text-anchor: end;
  }
  .splitjoinBody {
    fill:#000;
  }</style>
  <g s:type="generic" transform="translate(500,129)" s:width="30" s:height="40" id="cell_u_if_id">
    <text x="15" y="-4" class="nodelabel cell_u_if_id" s:attribute="ref">if_id_register</text>
    <rect width="30" height="120" s:generic="body" class="cell_u_if_id"/>
    <g transform="translate(0,10)" s:x="0" s:y="10" s:pid="in0" id="port_u_if_id~clk">
      <text x="-3" y="-4" class="inputPortLabel cell_u_if_id">clk</text>
    </g>
    <g transform="translate(0,30)" s:x="0" s:y="10" s:pid="in0" id="port_u_if_id~flush">
      <text x="-3" y="-4" class="inputPortLabel cell_u_if_id">flush</text>
    </g>
    <g transform="translate(0,50)" s:x="0" s:y="10" s:pid="in0" id="port_u_if_id~instruction_in">
      <text x="-3" y="-4" class="inputPortLabel cell_u_if_id">instruction_in</text>
    </g>
    <g transform="translate(0,70)" s:x="0" s:y="10" s:pid="in0" id="port_u_if_id~pc_in">
      <text x="-3" y="-4" class="inputPortLabel cell_u_if_id">pc_in</text>
    </g>
    <g transform="translate(0,90)" s:x="0" s:y="10" s:pid="in0" id="port_u_if_id~rst">
      <text x="-3" y="-4" class="inputPortLabel cell_u_if_id">rst</text>
    </g>
    <g transform="translate(0,110)" s:x="0" s:y="10" s:pid="in0" id="port_u_if_id~stall">
      <text x="-3" y="-4" class="inputPortLabel cell_u_if_id">stall</text>
    </g>
    <g transform="translate(30,10)" s:x="30" s:y="10" s:pid="out0" id="port_u_if_id~instruction_out">
      <text x="5" y="-4" style="fill:#000; stroke:none" class="cell_u_if_id">instruction_out</text>
    </g>
    <g transform="translate(30,30)" s:x="30" s:y="10" s:pid="out0" id="port_u_if_id~pc_out">
      <text x="5" y="-4" style="fill:#000; stroke:none" class="cell_u_if_id">pc_out</text>
    </g>
  </g>
  <g s:type="generic" transform="translate(277,146.5)" s:width="30" s:height="40" id="cell_u_imem">
    <text x="15" y="-4" class="nodelabel cell_u_imem" s:attribute="ref">instruction_memory</text>
    <rect width="30" height="40" s:generic="body" class="cell_u_imem"/>
    <g transform="translate(0,10)" s:x="0" s:y="10" s:pid="in0" id="port_u_imem~addr">
      <text x="-3" y="-4" class="inputPortLabel cell_u_imem">addr</text>
    </g>
    <g transform="translate(0,30)" s:x="0" s:y="10" s:pid="in0" id="port_u_imem~clk">
      <text x="-3" y="-4" class="inputPortLabel cell_u_imem">clk</text>
    </g>
    <g transform="translate(30,10)" s:x="30" s:y="10" s:pid="out0" id="port_u_imem~instruction">
      <text x="5" y="-4" style="fill:#000; stroke:none" class="cell_u_imem">instruction</text>
    </g>
  </g>
  <g s:type="generic" transform="translate(137,189)" s:width="30" s:height="40" id="cell_u_pc">
    <text x="15" y="-4" class="nodelabel cell_u_pc" s:attribute="ref">program_counter_32</text>
    <rect width="30" height="100" s:generic="body" class="cell_u_pc"/>
    <g transform="translate(0,10)" s:x="0" s:y="10" s:pid="in0" id="port_u_pc~clk">
      <text x="-3" y="-4" class="inputPortLabel cell_u_pc">clk</text>
    </g>
    <g transform="translate(0,30)" s:x="0" s:y="10" s:pid="in0" id="port_u_pc~pc_src">
      <text x="-3" y="-4" class="inputPortLabel cell_u_pc">pc_src</text>
    </g>
    <g transform="translate(0,50)" s:x="0" s:y="10" s:pid="in0" id="port_u_pc~pc_write">
      <text x="-3" y="-4" class="inputPortLabel cell_u_pc">pc_write</text>
    </g>
    <g transform="translate(0,70)" s:x="0" s:y="10" s:pid="in0" id="port_u_pc~rst">
      <text x="-3" y="-4" class="inputPortLabel cell_u_pc">rst</text>
    </g>
    <g transform="translate(0,90)" s:x="0" s:y="10" s:pid="in0" id="port_u_pc~target_pc">
      <text x="-3" y="-4" class="inputPortLabel cell_u_pc">target_pc</text>
    </g>
    <g transform="translate(30,10)" s:x="30" s:y="10" s:pid="out0" id="port_u_pc~pc_out">
      <text x="5" y="-4" style="fill:#000; stroke:none" class="cell_u_pc">pc_out</text>
    </g>
    <g transform="translate(30,30)" s:x="30" s:y="10" s:pid="out0" id="port_u_pc~pc_plus4">
      <text x="5" y="-4" style="fill:#000; stroke:none" class="cell_u_pc">pc_plus4</text>
    </g>
  </g>
  <g s:type="generic" transform="translate(783,264.5)" s:width="30" s:height="40" id="cell_u_regfile">
    <text x="15" y="-4" class="nodelabel cell_u_regfile" s:attribute="ref">regfile</text>
    <rect width="30" height="140" s:generic="body" class="cell_u_regfile"/>
    <g transform="translate(0,10)" s:x="0" s:y="10" s:pid="in0" id="port_u_regfile~clk">
      <text x="-3" y="-4" class="inputPortLabel cell_u_regfile">clk</text>
    </g>
    <g transform="translate(0,30)" s:x="0" s:y="10" s:pid="in0" id="port_u_regfile~rd_addr">
      <text x="-3" y="-4" class="inputPortLabel cell_u_regfile">rd_addr</text>
    </g>
    <g transform="translate(0,50)" s:x="0" s:y="10" s:pid="in0" id="port_u_regfile~rd_data">
      <text x="-3" y="-4" class="inputPortLabel cell_u_regfile">rd_data</text>
    </g>
    <g transform="translate(0,70)" s:x="0" s:y="10" s:pid="in0" id="port_u_regfile~reg_write">
      <text x="-3" y="-4" class="inputPortLabel cell_u_regfile">reg_write</text>
    </g>
    <g transform="translate(0,90)" s:x="0" s:y="10" s:pid="in0" id="port_u_regfile~rs1_addr">
      <text x="-3" y="-4" class="inputPortLabel cell_u_regfile">rs1_addr</text>
    </g>
    <g transform="translate(0,110)" s:x="0" s:y="10" s:pid="in0" id="port_u_regfile~rs2_addr">
      <text x="-3" y="-4" class="inputPortLabel cell_u_regfile">rs2_addr</text>
    </g>
    <g transform="translate(0,130)" s:x="0" s:y="10" s:pid="in0" id="port_u_regfile~rst">
      <text x="-3" y="-4" class="inputPortLabel cell_u_regfile">rst</text>
    </g>
    <g transform="translate(30,10)" s:x="30" s:y="10" s:pid="out0" id="port_u_regfile~rs1_data">
      <text x="5" y="-4" style="fill:#000; stroke:none" class="cell_u_regfile">rs1_data</text>
    </g>
    <g transform="translate(30,30)" s:x="30" s:y="10" s:pid="out0" id="port_u_regfile~rs2_data">
      <text x="5" y="-4" style="fill:#000; stroke:none" class="cell_u_regfile">rs2_data</text>
    </g>
  </g>
  <g s:type="inputExt" transform="translate(12,98)" s:width="30" s:height="20" id="cell_clk">
    <text x="15" y="-4" class="nodelabel cell_clk" s:attribute="ref">clk</text>
    <s:alias val="$_inputExt_"/>
    <path d="M0,0 L0,20 L15,20 L30,10 L15,0 Z" class="cell_clk"/>
    <g s:x="28" s:y="10" s:pid="Y"/>
  </g>
  <g s:type="inputExt" transform="translate(12,455)" s:width="30" s:height="20" id="cell_rst">
    <text x="15" y="-4" class="nodelabel cell_rst" s:attribute="ref">rst</text>
    <s:alias val="$_inputExt_"/>
    <path d="M0,0 L0,20 L15,20 L30,10 L15,0 Z" class="cell_rst"/>
    <g s:x="28" s:y="10" s:pid="Y"/>
  </g>
  <g s:type="outputExt" transform="translate(898,87)" s:width="30" s:height="20" id="cell_pc_debug">
    <text x="15" y="-4" class="nodelabel cell_pc_debug" s:attribute="ref">pc_debug</text>
    <s:alias val="$_outputExt_"/>
    <path d="M30,0 L30,20 L15,20 L0,10 L15,0 Z" class="cell_pc_debug"/>
    <g s:x="0" s:y="10" s:pid="A"/>
  </g>
  <g s:type="outputExt" transform="translate(898,22)" s:width="30" s:height="20" id="cell_instr_debug">
    <text x="15" y="-4" class="nodelabel cell_instr_debug" s:attribute="ref">instr_debug</text>
    <s:alias val="$_outputExt_"/>
    <path d="M30,0 L30,20 L15,20 L0,10 L15,0 Z" class="cell_instr_debug"/>
    <g s:x="0" s:y="10" s:pid="A"/>
  </g>
  <g s:type="outputExt" transform="translate(898,220)" s:width="30" s:height="20" id="cell_rs1_debug">
    <text x="15" y="-4" class="nodelabel cell_rs1_debug" s:attribute="ref">rs1_debug</text>
    <s:alias val="$_outputExt_"/>
    <path d="M30,0 L30,20 L15,20 L0,10 L15,0 Z" class="cell_rs1_debug"/>
    <g s:x="0" s:y="10" s:pid="A"/>
  </g>
  <g s:type="outputExt" transform="translate(898,285)" s:width="30" s:height="20" id="cell_rs2_debug">
    <text x="15" y="-4" class="nodelabel cell_rs2_debug" s:attribute="ref">rs2_debug</text>
    <s:alias val="$_outputExt_"/>
    <path d="M30,0 L30,20 L15,20 L0,10 L15,0 Z" class="cell_rs2_debug"/>
    <g s:x="0" s:y="10" s:pid="A"/>
  </g>
  <g s:type="constant" transform="translate(12,325)" s:width="30" s:height="20" id="cell_0">
    <text x="15" y="-4" class="nodelabel cell_0" s:attribute="ref">0</text>
    <s:alias val="$_constant_"/>
    <rect width="30" height="20" class="cell_0"/>
    <g s:x="30" s:y="10" s:pid="Y"/>
  </g>
  <g s:type="constant" transform="translate(12,229.5)" s:width="30" s:height="20" id="cell_1">
    <text x="15" y="-4" class="nodelabel cell_1" s:attribute="ref">1</text>
    <s:alias val="$_constant_"/>
    <rect width="30" height="20" class="cell_1"/>
    <g s:x="30" s:y="10" s:pid="Y"/>
  </g>
  <g s:type="constant" transform="translate(12,390)" s:width="30" s:height="20" id="cell_00000000000000000000000000000000">
    <text x="15" y="-4" class="nodelabel cell_00000000000000000000000000000000" s:attribute="ref">0x0</text>
    <s:alias val="$_constant_"/>
    <rect width="30" height="20" class="cell_00000000000000000000000000000000"/>
    <g s:x="30" s:y="10" s:pid="Y"/>
  </g>
  <g s:type="constant" transform="translate(657,285)" s:width="30" s:height="20" id="cell_00000">
    <text x="15" y="-4" class="nodelabel cell_00000" s:attribute="ref">0x0</text>
    <s:alias val="$_constant_"/>
    <rect width="30" height="20" class="cell_00000"/>
    <g s:x="30" s:y="10" s:pid="Y"/>
  </g>
  <g s:type="split" transform="translate(657,348)" s:width="5" s:height="40" id="cell_$split$,36,37,38,39,40,41,42,43,44,45,46,47,48,49,50,51,52,53,54,55,56,57,58,59,60,61,62,63,64,65,66,67,">
    <rect width="5" height="40" class="splitjoinBody" s:generic="body"/>
    <s:alias val="$_split_"/>
    <g s:x="0" s:y="20" s:pid="in"/>
    <g transform="translate(4,10)" s:x="4" s:y="10" s:pid="out0">
      <text x="5" y="-4">15:19</text>
    </g>
    <g transform="translate(4,30)" s:x="4" s:y="10" s:pid="out0">
      <text x="5" y="-4">20:24</text>
    </g>
  </g>
  <line x1="40" x2="405" y1="108" y2="108" class="net_2"/>
  <line x1="405" x2="405" y1="108" y2="139.5" class="net_2"/>
  <circle cx="405" cy="108" r="2" style="fill:#000" class="net_2"/>
  <line x1="405" x2="500" y1="139.5" y2="139.5" class="net_2"/>
  <line x1="40" x2="62" y1="108" y2="108" class="net_2"/>
  <line x1="62" x2="62" y1="108" y2="199.5" class="net_2"/>
  <circle cx="62" cy="108" r="2" style="fill:#000" class="net_2"/>
  <line x1="62" x2="137" y1="199.5" y2="199.5" class="net_2"/>
  <line x1="40" x2="703" y1="108" y2="108" class="net_2"/>
  <line x1="703" x2="703" y1="108" y2="275" class="net_2"/>
  <line x1="703" x2="783" y1="275" y2="275" class="net_2"/>
  <line x1="42" x2="52" y1="335" y2="335" class="net_228"/>
  <line x1="52" x2="52" y1="335" y2="125.5" class="net_228"/>
  <line x1="52" x2="395" y1="125.5" y2="125.5" class="net_228"/>
  <line x1="395" x2="395" y1="125.5" y2="159.5" class="net_228"/>
  <circle cx="52" cy="335" r="2" style="fill:#000" class="net_228"/>
  <line x1="395" x2="500" y1="159.5" y2="159.5" class="net_228"/>
  <line x1="42" x2="52" y1="335" y2="335" class="net_228"/>
  <line x1="52" x2="52" y1="335" y2="313" class="net_228"/>
  <line x1="52" x2="395" y1="313" y2="313" class="net_228"/>
  <line x1="395" x2="395" y1="313" y2="239.5" class="net_228"/>
  <circle cx="52" cy="313" r="2" style="fill:#000" class="net_228"/>
  <line x1="395" x2="500" y1="239.5" y2="239.5" class="net_228"/>
  <line x1="42" x2="52" y1="335" y2="335" class="net_228"/>
  <line x1="52" x2="52" y1="335" y2="219.5" class="net_228"/>
  <circle cx="52" cy="219.5" r="2" style="fill:#000" class="net_228"/>
  <line x1="52" x2="137" y1="219.5" y2="219.5" class="net_228"/>
  <line x1="42" x2="783" y1="335" y2="335" class="net_228"/>
  <line x1="308" x2="385" y1="157" y2="157" class="net_132,133,134,135,136,137,138,139,140,141,142,143,144,145,146,147,148,149,150,151,152,153,154,155,156,157,158,159,160,161,162,163"/>
  <line x1="385" x2="385" y1="157" y2="179.5" class="net_132,133,134,135,136,137,138,139,140,141,142,143,144,145,146,147,148,149,150,151,152,153,154,155,156,157,158,159,160,161,162,163"/>
  <line x1="385" x2="500" y1="179.5" y2="179.5" class="net_132,133,134,135,136,137,138,139,140,141,142,143,144,145,146,147,148,149,150,151,152,153,154,155,156,157,158,159,160,161,162,163"/>
  <line x1="168" x2="500" y1="199.5" y2="199.5" class="net_4,5,6,7,8,9,10,11,12,13,14,15,16,17,18,19,20,21,22,23,24,25,26,27,28,29,30,31,32,33,34,35"/>
  <line x1="168" x2="227" y1="199.5" y2="199.5" class="net_4,5,6,7,8,9,10,11,12,13,14,15,16,17,18,19,20,21,22,23,24,25,26,27,28,29,30,31,32,33,34,35"/>
  <line x1="227" x2="227" y1="199.5" y2="157" class="net_4,5,6,7,8,9,10,11,12,13,14,15,16,17,18,19,20,21,22,23,24,25,26,27,28,29,30,31,32,33,34,35"/>
  <circle cx="227" cy="199.5" r="2" style="fill:#000" class="net_4,5,6,7,8,9,10,11,12,13,14,15,16,17,18,19,20,21,22,23,24,25,26,27,28,29,30,31,32,33,34,35"/>
  <circle cx="227" cy="157" r="2" style="fill:#000" class="net_4,5,6,7,8,9,10,11,12,13,14,15,16,17,18,19,20,21,22,23,24,25,26,27,28,29,30,31,32,33,34,35"/>
  <line x1="227" x2="277" y1="157" y2="157" class="net_4,5,6,7,8,9,10,11,12,13,14,15,16,17,18,19,20,21,22,23,24,25,26,27,28,29,30,31,32,33,34,35"/>
  <line x1="168" x2="227" y1="199.5" y2="199.5" class="net_4,5,6,7,8,9,10,11,12,13,14,15,16,17,18,19,20,21,22,23,24,25,26,27,28,29,30,31,32,33,34,35"/>
  <line x1="227" x2="227" y1="199.5" y2="97" class="net_4,5,6,7,8,9,10,11,12,13,14,15,16,17,18,19,20,21,22,23,24,25,26,27,28,29,30,31,32,33,34,35"/>
  <line x1="227" x2="898" y1="97" y2="97" class="net_4,5,6,7,8,9,10,11,12,13,14,15,16,17,18,19,20,21,22,23,24,25,26,27,28,29,30,31,32,33,34,35"/>
  <line x1="40" x2="62" y1="465" y2="465" class="net_3"/>
  <line x1="62" x2="62" y1="465" y2="302" class="net_3"/>
  <line x1="62" x2="385" y1="302" y2="302" class="net_3"/>
  <line x1="385" x2="385" y1="302" y2="219.5" class="net_3"/>
  <circle cx="62" cy="465" r="2" style="fill:#000" class="net_3"/>
  <circle cx="62" cy="302" r="2" style="fill:#000" class="net_3"/>
  <line x1="385" x2="500" y1="219.5" y2="219.5" class="net_3"/>
  <line x1="40" x2="62" y1="465" y2="465" class="net_3"/>
  <line x1="62" x2="62" y1="465" y2="259.5" class="net_3"/>
  <line x1="62" x2="137" y1="259.5" y2="259.5" class="net_3"/>
  <line x1="40" x2="703" y1="465" y2="465" class="net_3"/>
  <line x1="703" x2="703" y1="465" y2="395" class="net_3"/>
  <line x1="703" x2="783" y1="395" y2="395" class="net_3"/>
  <line x1="42" x2="137" y1="239.5" y2="239.5" class="net_231"/>
  <line x1="42" x2="72" y1="400" y2="400" class="net_232,233,234,235,236,237,238,239,240,241,242,243,244,245,246,247,248,249,250,251,252,253,254,255,256,257,258,259,260,261,262,263"/>
  <line x1="72" x2="72" y1="400" y2="279.5" class="net_232,233,234,235,236,237,238,239,240,241,242,243,244,245,246,247,248,249,250,251,252,253,254,255,256,257,258,259,260,261,262,263"/>
  <line x1="72" x2="137" y1="279.5" y2="279.5" class="net_232,233,234,235,236,237,238,239,240,241,242,243,244,245,246,247,248,249,250,251,252,253,254,255,256,257,258,259,260,261,262,263"/>
  <line x1="42" x2="72" y1="400" y2="400" class="net_232,233,234,235,236,237,238,239,240,241,242,243,244,245,246,247,248,249,250,251,252,253,254,255,256,257,258,259,260,261,262,263"/>
  <line x1="72" x2="72" y1="400" y2="324" class="net_232,233,234,235,236,237,238,239,240,241,242,243,244,245,246,247,248,249,250,251,252,253,254,255,256,257,258,259,260,261,262,263"/>
  <line x1="72" x2="703" y1="324" y2="324" class="net_232,233,234,235,236,237,238,239,240,241,242,243,244,245,246,247,248,249,250,251,252,253,254,255,256,257,258,259,260,261,262,263"/>
  <line x1="703" x2="703" y1="324" y2="315" class="net_232,233,234,235,236,237,238,239,240,241,242,243,244,245,246,247,248,249,250,251,252,253,254,255,256,257,258,259,260,261,262,263"/>
  <circle cx="72" cy="324" r="2" style="fill:#000" class="net_232,233,234,235,236,237,238,239,240,241,242,243,244,245,246,247,248,249,250,251,252,253,254,255,256,257,258,259,260,261,262,263"/>
  <line x1="703" x2="783" y1="315" y2="315" class="net_232,233,234,235,236,237,238,239,240,241,242,243,244,245,246,247,248,249,250,251,252,253,254,255,256,257,258,259,260,261,262,263"/>
  <line x1="687" x2="783" y1="295" y2="295" class="net_264,265,266,267,268"/>
  <line x1="662" x2="703" y1="358.5" y2="358.5" class="net_51,52,53,54,55"/>
  <line x1="703" x2="703" y1="358.5" y2="355" class="net_51,52,53,54,55"/>
  <line x1="703" x2="783" y1="355" y2="355" class="net_51,52,53,54,55"/>
  <line x1="662" x2="703" y1="378.5" y2="378.5" class="net_56,57,58,59,60"/>
  <line x1="703" x2="703" y1="378.5" y2="375" class="net_56,57,58,59,60"/>
  <line x1="703" x2="783" y1="375" y2="375" class="net_56,57,58,59,60"/>
  <line x1="531" x2="632" y1="139.5" y2="139.5" class="net_36,37,38,39,40,41,42,43,44,45,46,47,48,49,50,51,52,53,54,55,56,57,58,59,60,61,62,63,64,65,66,67"/>
  <line x1="632" x2="632" y1="139.5" y2="32" class="net_36,37,38,39,40,41,42,43,44,45,46,47,48,49,50,51,52,53,54,55,56,57,58,59,60,61,62,63,64,65,66,67"/>
  <circle cx="632" cy="139.5" r="2" style="fill:#000" class="net_36,37,38,39,40,41,42,43,44,45,46,47,48,49,50,51,52,53,54,55,56,57,58,59,60,61,62,63,64,65,66,67"/>
  <line x1="632" x2="898" y1="32" y2="32" class="net_36,37,38,39,40,41,42,43,44,45,46,47,48,49,50,51,52,53,54,55,56,57,58,59,60,61,62,63,64,65,66,67"/>
  <line x1="531" x2="632" y1="139.5" y2="139.5" class="net_36,37,38,39,40,41,42,43,44,45,46,47,48,49,50,51,52,53,54,55,56,57,58,59,60,61,62,63,64,65,66,67"/>
  <line x1="632" x2="632" y1="139.5" y2="368.5" class="net_36,37,38,39,40,41,42,43,44,45,46,47,48,49,50,51,52,53,54,55,56,57,58,59,60,61,62,63,64,65,66,67"/>
  <line x1="632" x2="657" y1="368.5" y2="368.5" class="net_36,37,38,39,40,41,42,43,44,45,46,47,48,49,50,51,52,53,54,55,56,57,58,59,60,61,62,63,64,65,66,67"/>
  <line x1="814" x2="873" y1="275" y2="275" class="net_68,69,70,71,72,73,74,75,76,77,78,79,80,81,82,83,84,85,86,87,88,89,90,91,92,93,94,95,96,97,98,99"/>
  <line x1="873" x2="873" y1="275" y2="230" class="net_68,69,70,71,72,73,74,75,76,77,78,79,80,81,82,83,84,85,86,87,88,89,90,91,92,93,94,95,96,97,98,99"/>
  <line x1="873" x2="898" y1="230" y2="230" class="net_68,69,70,71,72,73,74,75,76,77,78,79,80,81,82,83,84,85,86,87,88,89,90,91,92,93,94,95,96,97,98,99"/>
  <line x1="814" x2="898" y1="295" y2="295" class="net_100,101,102,103,104,105,106,107,108,109,110,111,112,113,114,115,116,117,118,119,120,121,122,123,124,125,126,127,128,129,130,131"/>
</svg>
